# xmcd
#
# Track frame offsets: 
#        150
#        10272
#        23882
#        39612
#        47420
#        64225
#        73080
#        80050
#        96317
#        106507
#        120332
#        135467
#        144242
#        160945
#        173267
#        182390
#        198005
#
# Disc length: 2785 seconds
#
# Revision: 3
# Processed by: cddbd v1.5.2PL0 Copyright (c) Steve Scherf et al.
# Submitted via: ExactAudioCopy v1.0b1
#
DISCID=ce0adf11
DTITLE=Mississippi John Hurt - Last Sessions
DYEAR=1991
DGENRE=Blues
TTITLE0=Poor Boy, Long Ways From Home
TTITLE1=Boy's You're Welcome
TTITLE2=Joe Turner Blues
TTITLE3=First Shot Missed Him
TTITLE4=Farther Along
TTITLE5=Funky Butt
TTITLE6=Spider, Spider
TTITLE7=Waiting For You
TTITLE8=Shortnin' Bread
TTITLE9=Trouble, I've Had It All My Days
TTITLE10=Let The Mermaids Flirt With Me
TTITLE11=Good Morning, Carrie
TTITLE12=Nobody Cares For Me
TTITLE13=All Night Long
TTITLE14=Hey, Honey, Right Away
TTITLE15=You've Got To Die
TTITLE16=Goodnight Irene
EXTD=
EXTT0=
EXTT1=
EXTT2=
EXTT3=
EXTT4=
EXTT5=
EXTT6=
EXTT7=
EXTT8=
EXTT9=
EXTT10=
EXTT11=
EXTT12=
EXTT13=
EXTT14=
EXTT15=
EXTT16=
PLAYORDER=
